<svg height="480pt" viewBox="0 0 480 480.01387" width="480pt" xmlns="http://www.w3.org/2000/svg"><path d="m208.007812 280.003906h-16c-4.417968 0-8 3.582032-8 8 0 4.417969 3.582032 8 8 8h16c4.417969 0 8-3.582031 8-8 0-4.417968-3.582031-8-8-8zm0 0"/><path d="m432.007812 280.003906h-8c-4.417968 0-8 3.582032-8 8 0 4.417969 3.582032 8 8 8h8c4.417969 0 8-3.582031 8-8 0-4.417968-3.582031-8-8-8zm0 0"/><path d="m392.007812 280.003906h-8c-4.417968 0-8 3.582032-8 8 0 4.417969 3.582032 8 8 8h8c4.417969 0 8-3.582031 8-8 0-4.417968-3.582031-8-8-8zm0 0"/><path d="m80.007812 48.003906c-4.417968 0-8 3.582032-8 8v128c0 4.417969 3.582032 8 8 8 4.417969 0 8-3.582031 8-8v-128c0-4.417968-3.582031-8-8-8zm0 0"/><path d="m80.007812 208.003906c-4.417968 0-8 3.582032-8 8v8c0 4.417969 3.582032 8 8 8 4.417969 0 8-3.582031 8-8v-8c0-4.417968-3.582031-8-8-8zm0 0"/><path d="m272.007812 232.003906c4.417969 0 8-3.582031 8-8v-168c0-4.417968-3.582031-8-8-8-4.417968 0-8 3.582032-8 8v168c0 4.417969 3.582032 8 8 8zm0 0"/><path d="m400.007812 232.003906c4.417969 0 8-3.582031 8-8v-128c0-4.417968-3.582031-8-8-8-4.417968 0-8 3.582032-8 8v128c0 4.417969 3.582032 8 8 8zm0 0"/><path d="m400.007812 72.003906c4.417969 0 8-3.582031 8-8v-8c0-4.417968-3.582031-8-8-8-4.417968 0-8 3.582032-8 8v8c0 4.417969 3.582032 8 8 8zm0 0"/><path d="m160.007812 280.003906h-120c-4.417968 0-8 3.582032-8 8v56c0 4.417969 3.582032 8 8 8 4.417969 0 8-3.582031 8-8v-48h112c4.417969 0 8-3.582031 8-8 0-4.417968-3.582031-8-8-8zm0 0"/><path d="m264.007812 280.003906h-8c-4.417968 0-8 3.582032-8 8 0 4.417969 3.582032 8 8 8h8c4.417969 0 8-3.582031 8-8 0-4.417968-3.582031-8-8-8zm0 0"/><path d="m304.007812 280.003906h-8c-4.417968 0-8 3.582032-8 8 0 4.417969 3.582032 8 8 8h8c4.417969 0 8-3.582031 8-8 0-4.417968-3.582031-8-8-8zm0 0"/><path d="m440.007812 248.003906v-240c0-2.949218-1.625-5.664062-4.226562-7.054687-2.601562-1.390625-5.757812-1.238281-8.214844.398437-13.066406 8.449219-28.042968 13.488282-43.558594 14.65625-15.515624-1.195312-30.488281-6.238281-43.570312-14.664062-.109375-.070313-1.117188-.550782-1.351562-.648438-.304688-.140625-.621094-.257812-.941407-.351562-.386719-.101563-.78125-.175782-1.175781-.214844-.304688-.0429688-.609375-.0664062-.914062-.0742188-.707032.0234376-1.414063.1132808-2.105469.2734378-.378907.105469-.75.242187-1.109375.40625-.199219.089843-1.160156.546875-1.273438.617187-13.066406 8.449219-28.042968 13.488282-43.558594 14.65625-15.515624-1.195312-30.488281-6.238281-43.570312-14.664062-.109375-.070313-1.117188-.550782-1.351562-.648438-.304688-.136718-.621094-.253906-.941407-.351562-.386719-.101563-.78125-.175782-1.175781-.214844-.300781-.0390625-.601562-.0664062-.90625-.0742188-.402344 0-.804688.0351563-1.199219.1054688-.308593.035156-.617187.089844-.921875.167969-.371094.105469-.734375.238281-1.085937.398437-.207031.089844-1.175781.554688-1.289063.625-13.066406 8.449219-28.042968 13.488282-43.558594 14.65625-15.515624-1.195312-30.488281-6.238281-43.570312-14.664062-.109375-.070313-1.109375-.542969-1.335938-.640625-.316406-.140625-.640624-.265625-.976562-.367188-.375-.097656-.761719-.167969-1.148438-.207031-.304687-.0429688-.609374-.0664062-.914062-.0742188-.410156 0-.820312.0351563-1.222656.1054688-.296875.035156-.589844.089844-.882813.160156-.382812.109375-.761719.25-1.125.414063-.199219.089843-1.152343.546875-1.265625.617187-13.066406 8.449219-28.042968 13.488282-43.558594 14.65625-15.515624-1.195312-30.488281-6.238281-43.570312-14.664062-2.453125-1.632813-5.609375-1.785156-8.210938-.390625-2.597656 1.394531-4.222656 4.105469-4.21875 7.054687v240c-22.082031.027344-39.9726558 17.917969-39.9999995 40v80c.0273437 22.082032 17.9179685 39.972656 39.9999995 40h8.40625c4.105469 40.882813 38.511719 72.011719 79.601563 72.011719s75.496094-31.128906 79.597656-72.011719h64.800781c4.105469 40.882813 38.511719 72.011719 79.601563 72.011719s75.496094-31.128906 79.597656-72.011719h8.394531c22.078126-.027344 39.972657-17.917968 40-40v-80c-.027343-22.082031-17.921874-39.972656-40-40zm-16-226.398437v226.398437h-80v-226.398437c12.417969 6.328125 26.070313 9.878906 40 10.398437 13.929688-.519531 27.578126-4.070312 40-10.398437zm-96 0v226.398437h-80v-226.398437c12.417969 6.328125 26.070313 9.878906 40 10.398437 13.929688-.519531 27.578126-4.070312 40-10.398437zm-96 0v226.398437h-80v-226.398437c12.417969 6.328125 26.070313 9.878906 40 10.398437 13.929688-.519531 27.578126-4.070312 40-10.398437zm-176 0c12.417969 6.328125 26.070313 9.878906 40 10.398437 13.929688-.519531 27.578126-4.070312 40-10.398437v226.398437h-80zm56 378.398437c0-8.835937 7.164063-16 16-16 8.835938 0 16 7.164063 16 16 0 8.835938-7.164062 16-16 16-8.835937 0-16-7.164062-16-16zm36.429688-24.425781c-8.792969-7.59375-21.082031-9.664063-31.878906-5.367187l-18.953125-26.511719c25.699219-13.917969 57.566406-8.582031 77.328125 12.945312zm-63.789062-22.511719 18.933593 26.503906c-7.585937 8.800782-9.65625 21.089844-5.367187 31.890626l-26.511719 18.941406c-13.917969-25.695313-8.585937-57.5625 12.945313-77.328125zm-3.578126 90.296875 26.503907-18.933593c8.800781 7.585937 21.089843 9.65625 31.890625 5.367187l18.941406 26.511719c-25.695312 13.917968-57.566406 8.582031-77.328125-12.945313zm90.296876 3.578125-18.9375-26.503906c7.597656-8.796875 9.664062-21.085938 5.371093-31.882812l26.511719-18.949219c13.917969 25.695312 8.582031 57.5625-12.945312 77.328125zm116.640624-46.9375c-.003906-14.261718 4.785157-28.113281 13.597657-39.328125l23.722656 21.726563c-7.859375 11.753906-6.9375 27.300781 2.253906 38.042968l-18.933593 26.496094c-13.144532-12.070312-20.632813-29.09375-20.640626-46.9375zm48 0c0-8.835937 7.164063-16 16-16 8.835938 0 16 7.164063 16 16 0 8.835938-7.164062 16-16 16-8.835937 0-16-7.164062-16-16zm27.457032-29.792968c-8.496094-3.402344-18.058594-2.851563-26.105469 1.503906l-24.367187-22.328125c19.957031-15.496094 47.191406-17.726563 69.40625-5.6875zm-41.859375 86.097656 18.9375-26.511719c10.5 4.179687 22.441406 2.34375 31.199219-4.800781l22.824218 20.929687c.359375.265625.738282.5 1.136719.703125-20.015625 18.886719-49.898437 22.789063-74.097656 9.679688zm84.160156-21.710938c-.132813-.152344-.199219-.347656-.351563-.488281l-23.855468-21.875c4.601562-10.980469 2.617187-23.621094-5.128906-32.664063l18.9375-26.503906c22.90625 20.992188 27.300781 55.460938 10.398437 81.53125zm58.242187-66.59375c0 13.253906-10.746093 24-24 24h-8.410156c-4.101562-40.882812-38.511718-72.011718-79.597656-72.011718-41.089844 0-75.496094 31.128906-79.601562 72.011718h-64.800782c-4.101562-40.882812-38.511718-72.011718-79.597656-72.011718-41.089844 0-75.496094 31.128906-79.601562 72.011718h-8.390626c-13.253906 0-24-10.746094-24-24v-80c0-13.253906 10.746094-24 24-24h400c13.253907 0 24 10.746094 24 24zm0 0"/></svg>