<?xml version="1.0" encoding="iso-8859-1"?>
<!-- Generator: Adobe Illustrator 19.0.0, SVG Export Plug-In . SVG Version: 6.00 Build 0)  -->
<svg version="1.1" id="Capa_1" xmlns="http://www.w3.org/2000/svg" xmlns:xlink="http://www.w3.org/1999/xlink" x="0px" y="0px"
	 viewBox="0 0 512 512" style="enable-background:new 0 0 512 512;" xml:space="preserve">
<g>
	<g>
		<path d="M437.55,402.09c-2.32-2.32-5.77-3.38-9.02-2.73c-0.64,0.13-1.27,0.32-1.87,0.57c-0.61,0.25-1.19,0.56-1.73,0.92
			c-0.55,0.36-1.06,0.78-1.52,1.24c-0.46,0.46-0.88,0.97-1.24,1.52c-0.36,0.54-0.67,1.12-0.92,1.73c-0.25,0.6-0.44,1.23-0.57,1.87
			s-0.2,1.3-0.2,1.95c0,0.66,0.07,1.31,0.2,1.96c0.13,0.64,0.32,1.27,0.57,1.87c0.25,0.6,0.56,1.18,0.92,1.72
			c0.36,0.55,0.78,1.06,1.24,1.53c0.46,0.46,0.97,0.87,1.52,1.24c0.54,0.36,1.12,0.67,1.73,0.92c0.6,0.25,1.23,0.44,1.87,0.57
			s1.3,0.19,1.95,0.19c2.64,0,5.21-1.06,7.07-2.92c1.86-1.87,2.93-4.44,2.93-7.08C440.48,406.53,439.41,403.95,437.55,402.09z"/>
	</g>
</g>
<g>
	<g>
		<path d="M309.992,199.059c-50.123,0-90.901,40.778-90.901,90.901c0,50.123,40.778,90.901,90.901,90.901
			s90.901-40.778,90.901-90.901C400.893,239.837,360.115,199.059,309.992,199.059z M309.992,360.86
			c-39.095,0-70.901-31.806-70.901-70.901s31.806-70.901,70.901-70.901c39.095,0,70.901,31.806,70.901,70.901
			C380.893,329.054,349.087,360.86,309.992,360.86z"/>
	</g>
</g>
<g>
	<g>
		<path d="M315.825,281.806v-18.083c7.98,0.62,10.313,4.583,14.364,4.583c5.403,0,7.612-6.812,7.612-10.156
			c0-8.546-14.364-10.527-21.976-10.775v-3.096c0-1.734-2.332-3.344-4.665-3.344c-2.702,0-4.666,1.61-4.666,3.344v3.468
			c-13.014,1.858-24.555,9.414-24.555,25.143c0,15.853,13.26,21.18,24.555,25.514v20.065c-9.085-1.61-13.259-8.917-18.416-8.917
			c-4.665,0-8.348,6.193-8.348,10.404c0,7.927,12.031,15.605,26.764,16.101h0v3.093c0,1.734,1.965,3.344,4.666,3.344
			c2.332,0,4.665-1.61,4.665-3.344v-3.592c14.364-2.353,24.186-11.642,24.186-27C340.011,291.838,326.997,286.017,315.825,281.806z
			 M307.721,278.836c-4.665-1.982-7.857-4.211-7.857-7.803c0-2.973,2.333-5.821,7.857-6.936V278.836z M314.597,318.346v-16.597
			c4.42,2.105,7.488,4.707,7.489,8.794C322.086,315.002,318.771,317.355,314.597,318.346z"/>
	</g>
</g>
<g>
	<g>
		<path d="M480.113,400.834V304.46c0-34.376-10.496-70.523-29.554-101.783c-14.233-23.344-32.89-43.38-53.912-58.179
			c7.1-5.264,11.711-13.705,11.711-23.203c0-15.918-12.951-28.869-28.869-28.869h-10.305l42.617-77.614
			c1.701-3.098,1.641-6.864-0.16-9.906c-1.8-3.04-5.072-4.906-8.606-4.906h-51.401c-2.228,0-4.393,0.744-6.149,2.114l-33.436,26.075
			l-17.24-24.02C292.93,1.552,289.906,0,286.685,0h-69.736c-3.534,0-6.806,1.866-8.606,4.907c-1.8,3.042-1.861,6.808-0.16,9.906
			L250.8,92.427h-10.304c-15.918,0-28.869,12.95-28.869,28.869c0,9.445,4.559,17.845,11.592,23.115
			c-17.826,12.322-33.732,28.066-46.782,46.43c-17.135,24.11-28.668,51.781-33.542,80.366H10c-5.523,0-10,4.477-10,10v55.199
			c0,5.523,4.477,10,10,10h10.002v35.198H10c-5.523,0-10,4.477-10,10v55.199c0,5.523,4.477,10,10,10h10.002V502
			c0,5.523,4.477,10,10,10h172.377c5.523,0,10-4.477,10-10v-13.259H467.07c24.774,0,44.93-20.155,44.93-44.93
			C512,423.868,498.578,406.496,480.113,400.834z M233.848,20h47.705l20.315,28.305c1.586,2.211,4.006,3.68,6.699,4.067
			c2.691,0.389,5.429-0.339,7.574-2.012L355.072,20h31.063l-39.769,72.426h-72.751L233.848,20z M240.496,112.427h138.993
			c4.891,0,8.869,3.979,8.869,8.869c0,4.891-3.979,8.869-8.869,8.869H240.496c-4.891,0-8.869-3.979-8.869-8.869
			C231.626,116.405,235.605,112.427,240.496,112.427z M20,326.405v-35.199h152.377v35.199H20z M192.379,346.405v35.198H40.002
			v-35.198H192.379z M20,436.802v-35.199h152.377v35.199H20z M192.379,492H40.002v-35.198h152.377V492z M467.07,468.741H212.379
			v-21.939c0-5.523-4.477-10-10-10h-10.002v-17.638h198.576c5.523,0,10-4.477,10-10s-4.477-10-10-10H208.925
			c2.116-1.833,3.455-4.541,3.455-7.561v-55.198c0-5.523-4.477-10-10-10h-10.002v-45.199c0-5.523-4.477-10-10-10h-19.155
			c9.902-51.402,44.139-98.055,89.281-121.042h114.974c53.801,27.477,92.635,91.958,92.635,154.295v104.563
			c0,5.189,3.97,9.517,9.14,9.963C482.008,420.087,492,430.992,492,443.812C492,457.558,480.816,468.741,467.07,468.741z"/>
	</g>
</g>
<g>
</g>
<g>
</g>
<g>
</g>
<g>
</g>
<g>
</g>
<g>
</g>
<g>
</g>
<g>
</g>
<g>
</g>
<g>
</g>
<g>
</g>
<g>
</g>
<g>
</g>
<g>
</g>
<g>
</g>
</svg>
