<svg height="480pt" viewBox="0 -8 480.33469 480" width="480pt" xmlns="http://www.w3.org/2000/svg"><path d="m275.519531 160.902344c-2.632812-1.25-5.742187-.964844-8.105469.742187-2.363281 1.707031-3.613281 4.566407-3.257812 7.460938.355469 2.898437 2.257812 5.367187 4.964844 6.453125 26.128906 10.867187 43.167968 36.375 43.199218 64.671875 0 39.765625-32.234374 72-72 72-39.761718 0-72-32.234375-72-72 .035157-28.296875 17.070313-53.804688 43.199219-64.671875 2.710938-1.085938 4.613281-3.554688 4.96875-6.453125.355469-2.894531-.894531-5.753907-3.257812-7.460938-2.367188-1.707031-5.472657-1.992187-8.109375-.742187-31.996094 13.367187-52.820313 44.65625-52.800782 79.328125 0 48.601562 39.398438 88 88 88 48.601563 0 88-39.398438 88-88 .019532-34.671875-20.804687-65.960938-52.800781-79.328125zm0 0"/><path d="m234.640625 173.832031c1.515625 1.5 3.550781 2.359375 5.679687 2.398438 2.144532.023437 4.203126-.84375 5.679688-2.398438.722656-.738281 1.292969-1.605469 1.679688-2.5625.449218-.949219.667968-1.988281.640624-3.039062-.027343-2.117188-.855468-4.144531-2.320312-5.679688-2.300781-2.269531-5.738281-2.933593-8.71875-1.679687-.988281.367187-1.886719.941406-2.640625 1.679687-1.460937 1.535157-2.289063 3.5625-2.320313 5.679688-.027343 1.050781.191407 2.089843.640626 3.039062.390624.957031.960937 1.824219 1.679687 2.5625zm0 0"/><path d="m296.320312 240.230469c0-4.417969-3.582031-8-8-8h-96c-4.417968 0-8 3.582031-8 8s3.582032 8 8 8h96c4.417969 0 8-3.582031 8-8zm0 0"/><path d="m224.320312 216.230469h32c4.417969 0 8-3.582031 8-8s-3.582031-8-8-8h-32c-4.417968 0-8 3.582031-8 8s3.582032 8 8 8zm0 0"/><path d="m224.320312 264.230469c-4.417968 0-8 3.582031-8 8s3.582032 8 8 8h32c4.417969 0 8-3.582031 8-8s-3.582031-8-8-8zm0 0"/><path d="m448.320312 128.230469c-14.546874.054687-27.226562 9.914062-30.863281 24h-85.246093l-73.664063-93.757813c11.503906-7.972656 16.492187-22.492187 12.316406-35.851562s-16.546875-22.453125-30.542969-22.453125c-13.996093 0-26.367187 9.09375-30.542968 22.453125-4.175782 13.359375.816406 27.878906 12.320312 35.851562l-73.664062 93.757813h-85.25c-3.488282-13.710938-15.546875-23.519531-29.679688-24.144531-14.136718-.625-27.011718 8.085937-31.695312 21.4375-4.683594 13.351562-.066406 28.195312 11.363281 36.539062 11.429687 8.339844 26.972656 8.210938 38.261719-.320312l68.253906 80.664062-28.238281 134.136719c-1.046875-.097657-2.054688-.3125-3.128907-.3125-17.671874 0-32 14.328125-32 32s14.328126 32 32 32c17.675782 0 32-14.328125 32-32-.03125-5.320313-1.410156-10.550781-4-15.199219l124-48.214844 124 48.214844c-2.59375 4.648438-3.96875 9.875-4 15.199219 0 17.671875 14.328126 32 32 32 17.675782 0 32-14.328125 32-32s-14.324218-32-32-32c-1.070312 0-2.078124.214843-3.125.3125l-28.242187-134.136719 68.257813-80.664062c11.125 8.347656 26.375 8.535156 37.707031.46875 11.328125-8.070313 16.136719-22.539063 11.890625-35.785157-4.25-13.246093-16.578125-22.222656-30.488282-22.195312zm-208 216c-57.4375 0-104-46.5625-104-104s46.5625-104 104-104 104 46.5625 104 104c-.066406 57.410156-46.589843 103.933593-104 104zm0-328c8.835938 0 16 7.164062 16 16 0 8.835937-7.164062 16-16 16-8.835937 0-16-7.164063-16-16 0-8.835938 7.164063-16 16-16zm0 48c.761719 0 1.472657-.175781 2.226563-.222657l56.175781 71.472657c-36.261718-20.332031-80.492187-20.332031-116.753906 0l56.160156-71.472657c.71875.046876 1.433594.222657 2.191406.222657zm-208 112c-8.835937 0-16-7.164063-16-16 0-8.835938 7.164063-16 16-16 8.835938 0 16 7.164062 16 16 0 8.835937-7.164062 16-16 16zm29.296876-3.199219c.660156-1.554688 1.195312-3.160156 1.601562-4.800781h81.359375c-15.722656 20.710937-24.242187 45.996093-24.257813 72 0 .800781.105469 1.527343.121094 2.304687zm69.511718 116.695312c16.78125 36.871094 51.011719 62.804688 91.046875 68.984376l-114.980469 44.71875zm-42.808594 158.503907c-8.835937 0-16-7.164063-16-16 0-8.835938 7.164063-16 16-16 8.835938 0 16 7.164062 16 16 0 8.835937-7.164062 16-16 16zm320-16c0 8.835937-7.164062 16-16 16-8.835937 0-16-7.164063-16-16 0-8.835938 7.164063-16 16-16 8.835938 0 16 7.164062 16 16zm-34.871093-28.800781-114.984375-44.71875c40.039062-6.179688 74.269531-32.117188 91.046875-68.992188zm-13.246094-160.894532c0-.800781.117187-1.527344.117187-2.304687-.003906-26-8.511718-51.285157-24.222656-72h81.359375c.402344 1.640625.9375 3.246093 1.601563 4.800781zm88.117187-66.304687c-8.835937 0-16-7.164063-16-16 0-8.835938 7.164063-16 16-16 8.835938 0 16 7.164062 16 16 0 8.835937-7.164062 16-16 16zm0 0"/></svg>