<svg height="480pt" viewBox="0 0 480.11816 480" width="480pt" xmlns="http://www.w3.org/2000/svg"><path d="m408.117188 32.074219h16v16h-16zm0 0"/><path d="m408.117188 64.074219h16v16h-16zm0 0"/><path d="m392.117188 48.074219h16v16h-16zm0 0"/><path d="m424.117188 48.074219h16v16h-16zm0 0"/><path d="m336.117188 96.074219h16v16h-16zm0 0"/><path d="m336.117188 128.074219h16v16h-16zm0 0"/><path d="m320.117188 112.074219h16v16h-16zm0 0"/><path d="m352.117188 112.074219h16v16h-16zm0 0"/><path d="m448.117188 136.074219h16v16h-16zm0 0"/><path d="m448.117188 168.074219h16v16h-16zm0 0"/><path d="m432.117188 152.074219h16v16h-16zm0 0"/><path d="m464.117188 152.074219h16v16h-16zm0 0"/><path d="m472.117188 464.074219h-58.640626l-164.46875-399.433594 30.054688-52.566406c2.207031-3.835938.890625-8.734375-2.945312-10.945313-3.835938-2.210937-8.734376-.890625-10.941407 2.945313l-25.058593 43.878906-25.054688-43.878906c-2.246094-3.722657-7.046875-4.96875-10.820312-2.816407-3.769532 2.15625-5.132813 6.929688-3.066407 10.75l30.054688 52.601563-164.472657 399.464844h-58.640624c-4.417969 0-8 3.582031-8 8s3.582031 8 8 8h464c4.417968 0 8-3.582031 8-8s-3.582032-8-8-8zm-193.175782-284.707031-36.527344-10.957032c-1.496093-.449218-3.09375-.449218-4.59375 0l-36.527343 10.957032 38.824219-94.285157zm-22.488281 146.203124 69.511719 75.300782-34.75 52.136718zm-67.429687 127.4375-34.753907-52.136718 69.511719-75.300782zm13.574218 11.066407 37.519532-137.601563 37.519531 137.601563zm100.464844 0 39.710938-59.5625c2.042968-3.078125 1.714843-7.152344-.800782-9.863281l-95.878906-103.886719s-.449219-.359375-.609375-.503907c-.324219-.296874-.675781-.5625-1.046875-.800781-.160156-.105469-.933594-.519531-1.136719-.601562-.617187-.25-1.25-.460938-1.894531-.628907-.207031-.074218-1.054688-.152343-1.289062-.152343-.230469 0-1.09375.078125-1.320313.117187-.625.171875-1.238281.375-1.839844.617188-.214843.089844-1 .511718-1.160156.617187-.375.246094-1.640625 1.3125-1.640625 1.3125l-95.910156 103.910157c-2.511719 2.710937-2.84375 6.785156-.800782 9.863281l39.730469 59.5625h-93.113281l6.589844-16h13.464844c4.417968 0 8-3.582031 8-8s-3.582032-8-8-8h-6.878907l96.207031-233.648438 46.671876-14 46.671874 14 92.914063 225.648438h-19.585937c-4.417969 0-8 3.582031-8 8s3.582031 8 8 8h24c.6875-.046875 1.359374-.183594 2.007812-.410157l10.050781 24.410157zm0 0"/><path d="m202.460938 274.417969-32 32c-2.078126 2.007812-2.914063 4.980469-2.179688 7.777343.730469 2.796876 2.914062 4.984376 5.710938 5.714844 2.800781.730469 5.773437-.101562 7.78125-2.179687l32-32c3.03125-3.140625 2.988281-8.128907-.097657-11.214844-3.085937-3.085937-8.074219-3.128906-11.214843-.097656zm0 0"/><path d="m277.773438 274.417969c-3.136719-3.03125-8.128907-2.988281-11.214844.097656-3.085938 3.085937-3.128906 8.074219-.097656 11.214844l32 32c3.140624 3.03125 8.128906 2.988281 11.214843-.097657 3.085938-3.085937 3.128907-8.078124.097657-11.214843zm0 0"/><path d="m80.117188 160.074219c36.050781-.074219 67.617187-24.210938 77.128906-58.984375.828125-3.042969-.210938-6.289063-2.648438-8.289063-2.441406-2-5.828125-2.378906-8.648437-.96875-5.527344 2.792969-11.636719 4.242188-17.832031 4.242188-18.515626-.042969-34.582032-12.789063-38.839844-30.8125-4.253906-18.019531 4.417968-36.605469 20.960937-44.925781 2.816407-1.414063 4.539063-4.347657 4.402344-7.496094-.132813-3.148438-2.105469-5.921875-5.035156-7.085938-29.949219-11.933594-64.136719-4.71875-86.710938 18.292969-22.578125 23.015625-29.136719 57.332031-16.632812 87.046875 12.5 29.71875 41.617187 49.027344 73.855469 48.980469zm0-144c2.765624-.003907 5.527343.175781 8.265624.542969-15.933593 16.046874-20.652343 40.101562-11.960937 60.976562s29.082031 34.476562 51.695313 34.480469c2.5625 0 5.121093-.175781 7.65625-.519531-15.316407 27.113281-47.929688 39.265624-77.257813 28.785156-29.324219-10.476563-46.851563-40.546875-41.519531-71.226563 5.335937-30.683593 31.980468-53.074219 63.121094-53.039062zm0 0"/></svg>